<svg xmlns="http://www.w3.org/2000/svg" viewBox="0 0 280 120" width="100%" height="100%">
  <!-- Icon on the left -->
  <g fill="#0052ff">
    <!-- Top-left triangle -->
    <polygon points="0,0 24,0 0,24" />
    <!-- Middle triangle -->
    <polygon points="24,24 24,48 48,48" />
    <!-- Main Body (Left square, Right bar, Hook) -->
    <path d="M 0,48 L 24,48 L 24,72 L 48,96 L 48,24 L 72,24 L 72,96 L 48,120 L 0,72 Z" />
  </g>
  
  <!-- Text on the right (white for dark backgrounds) -->
  <g fill="#ffffff">
    <!-- "j" -->
    <path d="M 116,48 L 126,48 L 126,90 C 126,104 116,110 102,110 C 96,110 90,108 86,105 L 90,96 C 93,98 97,100 101,100 C 110,100 116,96 116,88 Z" />
    <!-- "v" -->
    <path d="M 136,48 L 147,48 L 158,82 L 169,48 L 180,48 L 164,96 L 152,96 Z" />
    <!-- "a" -->
    <path d="M 210,48 C 196,48 186,58 186,72 C 186,86 196,96 210,96 C 217,96 222,93 226,89 L 226,96 L 236,96 L 236,48 L 226,48 L 226,55 C 222,51 217,48 210,48 Z M 212,58 C 220,58 226,64 226,72 C 226,80 220,86 212,86 C 204,86 198,80 198,72 C 198,64 204,58 212,58 Z" />
    <!-- "i" -->
    <rect x="246" y="48" width="10" height="48" rx="1" />
  </g>
  
  <!-- Star over "i" in blue -->
  <path d="M 251,20 Q 251,32 263,32 Q 251,32 251,44 Q 251,32 239,32 Q 251,32 251,20 Z" fill="#0052ff" />
</svg>
